<svg width="21" height="21" viewBox="0 0 21 21" fill="none" xmlns="http://www.w3.org/2000/svg">
<path fill-rule="evenodd" clip-rule="evenodd" d="M15.8833 13.6667H12.7167V12.4823C13.97 11.814 14.862 10.6238 15.1518 9.23333H15.5667C16.0907 9.23177 16.5151 8.80735 16.5167 8.28333V7.33333C16.5151 6.80931 16.0907 6.3849 15.5667 6.38333H15.25V6.06667C15.4249 6.06667 15.5667 5.92489 15.5667 5.75V3.85C15.5642 2.277 14.2897 1.00244 12.7167 1H8.28333C6.71033 1.00244 5.43577 2.277 5.43333 3.85V5.75C5.43333 5.92489 5.57511 6.06667 5.75 6.06667V6.38333H5.43333C4.90931 6.3849 4.4849 6.80931 4.48333 7.33333V8.28333C4.4849 8.80735 4.90931 9.23177 5.43333 9.23333H5.84817C6.13802 10.6238 7.03004 11.814 8.28333 12.4823V13.6667H5.11667C2.84396 13.6688 1.00209 15.5106 1 17.7833V19.6833C1 19.8582 1.14178 20 1.31667 20H19.6833C19.8582 20 20 19.8582 20 19.6833V17.7833C19.9979 15.5106 18.156 13.6688 15.8833 13.6667ZM15.25 8.28329V7.01662H15.5667C15.7415 7.01662 15.8833 7.1584 15.8833 7.33329V8.28329C15.8833 8.45818 15.7415 8.59996 15.5667 8.59996H15.2373C15.2468 8.49546 15.25 8.39096 15.25 8.28329ZM5.11663 8.28329C5.11663 8.45818 5.25841 8.59996 5.4333 8.59996H5.76263C5.75313 8.49546 5.74997 8.39096 5.74997 8.28329V7.01662H5.4333C5.25841 7.01662 5.11663 7.1584 5.11663 7.33329V8.28329ZM14.6167 8.28328C14.6147 9.24119 14.2788 10.1684 13.6667 10.9053V8.71394L14.6167 7.57394V8.28328ZM8.28333 1.63331C7.05968 1.6347 6.06806 2.62632 6.06667 3.84997V5.43331H14.9333V3.84997C14.9319 2.62632 13.9403 1.6347 12.7167 1.63331H8.28333ZM7.33332 10.9053C6.72084 10.1687 6.38483 9.24127 6.38332 8.28328V7.57394L7.33332 8.71394V10.9053ZM6.38332 6.06674V6.58607L7.77032 8.24857L10.4303 7.65641C10.4763 7.64691 10.5237 7.64691 10.5697 7.65641L13.2297 8.24857L14.6167 6.58607V6.06674H6.38332ZM7.96666 11.526V8.85337L10.5 8.2897L13.0333 8.85337V11.526C12.7947 11.7125 12.5367 11.8728 12.2638 12.0042C11.1467 12.5299 9.85329 12.5299 8.73616 12.0042C8.4633 11.8728 8.20533 11.7125 7.96666 11.526ZM12.0834 13.9834V12.7611C11.059 13.1242 9.94102 13.1242 8.91669 12.7611V13.9834C8.91669 14.8578 9.62557 15.5667 10.5 15.5667C11.3745 15.5667 12.0834 14.8578 12.0834 13.9834ZM6.38333 17.15C6.55822 17.15 6.7 17.2917 6.7 17.4666C6.7 17.6415 6.55822 17.7833 6.38333 17.7833C6.20844 17.7833 6.06667 17.6415 6.06667 17.4666C6.06667 17.2917 6.20844 17.15 6.38333 17.15ZM1.63331 19.3667H19.3666V17.7833C19.3654 15.8601 17.8066 14.3012 15.8833 14.3H14.9333V15.9087C16.0229 16.0659 16.832 16.9991 16.8333 18.1C16.8333 18.2749 16.6915 18.4167 16.5166 18.4167H15.8833V17.7833H16.1683C16.0185 17.0454 15.3696 16.5151 14.6166 16.5151C13.8636 16.5151 13.2148 17.0454 13.065 17.7833H13.35V18.4167H12.7166C12.5417 18.4167 12.4 18.2749 12.4 18.1C12.4013 16.9991 13.2103 16.0659 14.3 15.9087V14.3H12.6945C12.5388 15.3924 11.6034 16.204 10.5 16.204C9.39655 16.204 8.46113 15.3924 8.30547 14.3H6.69997V16.5737C7.13619 16.7279 7.39786 17.174 7.31962 17.63C7.24138 18.086 6.84599 18.4193 6.38331 18.4193C5.92062 18.4193 5.52523 18.086 5.44699 17.63C5.36875 17.174 5.63042 16.7279 6.06664 16.5737V14.3H5.11664C3.19335 14.3012 1.63453 15.8601 1.63331 17.7833V19.3667Z" fill="#292D32"/>
<path d="M12.7167 13.6667H12.5667V13.8167H12.7167V13.6667ZM15.8833 13.6667L15.8835 13.5167H15.8833V13.6667ZM12.7167 12.4823L12.6461 12.35L12.5667 12.3923V12.4823H12.7167ZM15.1518 9.23333V9.08333H15.0299L15.005 9.20272L15.1518 9.23333ZM15.5667 9.23333V9.38333L15.5671 9.38333L15.5667 9.23333ZM16.5167 8.28333L16.6667 8.28378V8.28333H16.5167ZM16.5167 7.33333H16.6667L16.6667 7.33289L16.5167 7.33333ZM15.5667 6.38333L15.5671 6.23333H15.5667V6.38333ZM15.25 6.38333H15.1V6.53333H15.25V6.38333ZM15.25 6.06667V5.91667H15.1V6.06667H15.25ZM15.5667 3.85H15.7167L15.7167 3.84977L15.5667 3.85ZM12.7167 1L12.7169 0.85H12.7167V1ZM8.28333 1V0.85L8.2831 0.85L8.28333 1ZM5.43333 3.85L5.28333 3.84977V3.85H5.43333ZM5.75 6.06667H5.9V5.91667H5.75V6.06667ZM5.75 6.38333V6.53333H5.9V6.38333H5.75ZM5.43333 6.38333V6.23333L5.43289 6.23333L5.43333 6.38333ZM4.48333 7.33333L4.33333 7.33288V7.33333H4.48333ZM4.48333 8.28333H4.33333L4.33333 8.28378L4.48333 8.28333ZM5.43333 9.23333L5.43289 9.38333H5.43333V9.23333ZM5.84817 9.23333L5.99501 9.20272L5.97012 9.08333H5.84817V9.23333ZM8.28333 12.4823H8.43333V12.3923L8.35392 12.35L8.28333 12.4823ZM8.28333 13.6667V13.8167H8.43333V13.6667H8.28333ZM5.11667 13.6667V13.5167H5.11653L5.11667 13.6667ZM1 17.7833L0.85 17.7832V17.7833H1ZM20 17.7833H20.15V17.7832L20 17.7833ZM15.25 7.01662V6.86662H15.1V7.01662H15.25ZM15.2373 8.59996L15.0879 8.58638L15.0731 8.74996H15.2373V8.59996ZM5.76263 8.59996V8.74996H5.92689L5.91202 8.58638L5.76263 8.59996ZM5.74997 7.01662H5.89997V6.86662H5.74997V7.01662ZM13.6667 10.9053H13.5167V11.3206L13.7821 11.0011L13.6667 10.9053ZM14.6167 8.28328L14.7667 8.28358V8.28328H14.6167ZM13.6667 8.71394L13.5515 8.61792L13.5167 8.65964V8.71394H13.6667ZM14.6167 7.57394H14.7667V7.15964L14.5015 7.47792L14.6167 7.57394ZM6.06667 3.84997L5.91667 3.8498V3.84997H6.06667ZM8.28333 1.63331V1.4833L8.28316 1.48331L8.28333 1.63331ZM6.06667 5.43331H5.91667V5.58331H6.06667V5.43331ZM14.9333 5.43331V5.58331H15.0833V5.43331H14.9333ZM14.9333 3.84997H15.0833L15.0833 3.8498L14.9333 3.84997ZM12.7167 1.63331L12.7168 1.48331H12.7167V1.63331ZM6.38332 8.28328H6.23332L6.23332 8.28351L6.38332 8.28328ZM7.33332 10.9053L7.21798 11.0012L7.48332 11.3203V10.9053H7.33332ZM6.38332 7.57394L6.49855 7.47792L6.23332 7.15964V7.57394H6.38332ZM7.33332 8.71394H7.48332V8.65964L7.44855 8.61792L7.33332 8.71394ZM6.38332 6.58607H6.23332V6.64043L6.26814 6.68217L6.38332 6.58607ZM6.38332 6.06674V5.91674H6.23332V6.06674H6.38332ZM7.77032 8.24857L7.65514 8.34467L7.71369 8.41485L7.80291 8.39499L7.77032 8.24857ZM10.4303 7.65641L10.4 7.5095L10.3977 7.50999L10.4303 7.65641ZM10.5697 7.65641L10.6023 7.50997L10.6 7.50951L10.5697 7.65641ZM13.2297 8.24857L13.1971 8.39499L13.2863 8.41485L13.3448 8.34467L13.2297 8.24857ZM14.6167 6.58607L14.7318 6.68217L14.7667 6.64043V6.58607H14.6167ZM14.6167 6.06674H14.7667V5.91674H14.6167V6.06674ZM7.96666 8.85337L7.93408 8.70695L7.81666 8.73308V8.85337H7.96666ZM7.96666 11.526H7.81666V11.5992L7.87432 11.6442L7.96666 11.526ZM10.5 8.2897L10.5326 8.14328L10.5 8.13604L10.4674 8.14328L10.5 8.2897ZM13.0333 8.85337H13.1833V8.73308L13.0659 8.70695L13.0333 8.85337ZM13.0333 11.526L13.1257 11.6442L13.1833 11.5992V11.526H13.0333ZM12.2638 12.0042L12.3277 12.1399L12.3289 12.1393L12.2638 12.0042ZM8.73616 12.0042L8.67106 12.1393L8.67229 12.1399L8.73616 12.0042ZM12.0834 12.7611H12.2334V12.5487L12.0332 12.6197L12.0834 12.7611ZM8.91669 12.7611L8.96681 12.6197L8.76669 12.5487V12.7611H8.91669ZM19.3666 19.3667V19.5167H19.5166V19.3667H19.3666ZM1.63331 19.3667H1.48331V19.5167H1.63331V19.3667ZM19.3666 17.7833H19.5166V17.7832L19.3666 17.7833ZM15.8833 14.3L15.8834 14.15H15.8833V14.3ZM14.9333 14.3V14.15H14.7833V14.3H14.9333ZM14.9333 15.9087H14.7833V16.0386L14.9119 16.0571L14.9333 15.9087ZM16.8333 18.1H16.9833L16.9833 18.0998L16.8333 18.1ZM15.8833 18.4167H15.7333V18.5667H15.8833V18.4167ZM15.8833 17.7833V17.6333H15.7333V17.7833H15.8833ZM16.1683 17.7833V17.9333H16.3518L16.3153 17.7535L16.1683 17.7833ZM13.065 17.7833L12.918 17.7535L12.8815 17.9333H13.065V17.7833ZM13.35 17.7833H13.5V17.6333H13.35V17.7833ZM13.35 18.4167V18.5667H13.5V18.4167H13.35ZM12.4 18.1L12.25 18.0998V18.1H12.4ZM14.3 15.9087L14.3214 16.0571L14.45 16.0386V15.9087H14.3ZM14.3 14.3H14.45V14.15H14.3V14.3ZM12.6945 14.3V14.15H12.5643L12.546 14.2788L12.6945 14.3ZM8.30547 14.3L8.45397 14.2788L8.43561 14.15H8.30547V14.3ZM6.69997 14.3V14.15H6.54997V14.3H6.69997ZM6.69997 16.5737H6.54997V16.6797L6.64997 16.7151L6.69997 16.5737ZM7.31962 17.63L7.17178 17.6046H7.17178L7.31962 17.63ZM5.44699 17.63L5.59483 17.6046H5.59483L5.44699 17.63ZM6.06664 16.5737L6.11664 16.7151L6.21664 16.6797V16.5737H6.06664ZM6.06664 14.3H6.21664V14.15H6.06664V14.3ZM5.11664 14.3V14.15H5.11654L5.11664 14.3ZM1.63331 17.7833L1.48331 17.7832V17.7833H1.63331ZM12.7167 13.8167H15.8833V13.5167H12.7167V13.8167ZM12.5667 12.4823V13.6667H12.8667V12.4823H12.5667ZM15.005 9.20272C14.7242 10.5497 13.8601 11.7025 12.6461 12.35L12.7873 12.6147C14.0798 11.9254 14.9998 10.698 15.2987 9.26394L15.005 9.20272ZM15.5667 9.08333H15.1518V9.38333H15.5667V9.08333ZM16.3667 8.28289C16.3653 8.72441 16.0077 9.08202 15.5662 9.08333L15.5671 9.38333C16.1736 9.38152 16.6649 8.8903 16.6667 8.28378L16.3667 8.28289ZM16.3667 7.33333V8.28333H16.6667V7.33333H16.3667ZM15.5662 6.53333C16.0077 6.53465 16.3653 6.89225 16.3667 7.33378L16.6667 7.33289C16.6649 6.72637 16.1736 6.23515 15.5671 6.23333L15.5662 6.53333ZM15.25 6.53333H15.5667V6.23333H15.25V6.53333ZM15.1 6.06667V6.38333H15.4V6.06667H15.1ZM15.4167 5.75C15.4167 5.84205 15.342 5.91667 15.25 5.91667V6.21667C15.5077 6.21667 15.7167 6.00773 15.7167 5.75H15.4167ZM15.4167 3.85V5.75H15.7167V3.85H15.4167ZM12.7164 1.15C14.2068 1.15231 15.4144 2.35989 15.4167 3.85023L15.7167 3.84977C15.7141 2.19411 14.3726 0.85257 12.7169 0.85L12.7164 1.15ZM8.28333 1.15H12.7167V0.85H8.28333V1.15ZM5.58333 3.85023C5.58565 2.35989 6.79323 1.15231 8.28357 1.15L8.2831 0.85C6.62744 0.85257 5.2859 2.19411 5.28333 3.84977L5.58333 3.85023ZM5.58333 5.75V3.85H5.28333V5.75H5.58333ZM5.75 5.91667C5.65795 5.91667 5.58333 5.84205 5.58333 5.75H5.28333C5.28333 6.00773 5.49227 6.21667 5.75 6.21667V5.91667ZM5.9 6.38333V6.06667H5.6V6.38333H5.9ZM5.43333 6.53333H5.75V6.23333H5.43333V6.53333ZM4.63333 7.33378C4.63465 6.89225 4.99225 6.53465 5.43378 6.53333L5.43289 6.23333C4.82637 6.23515 4.33515 6.72637 4.33333 7.33288L4.63333 7.33378ZM4.63333 8.28333V7.33333H4.33333V8.28333H4.63333ZM5.43378 9.08333C4.99225 9.08202 4.63465 8.72441 4.63333 8.28289L4.33333 8.28378C4.33515 8.8903 4.82637 9.38152 5.43289 9.38333L5.43378 9.08333ZM5.84817 9.08333H5.43333V9.38333H5.84817V9.08333ZM8.35392 12.35C7.13987 11.7025 6.27578 10.5497 5.99501 9.20272L5.70132 9.26394C6.00025 10.698 6.92021 11.9254 8.21275 12.6147L8.35392 12.35ZM8.43333 13.6667V12.4823H8.13333V13.6667H8.43333ZM5.11667 13.8167H8.28333V13.5167H5.11667V13.8167ZM1.15 17.7835C1.15202 15.5935 2.92684 13.8187 5.11681 13.8167L5.11653 13.5167C2.76109 13.5188 0.852171 15.4278 0.85 17.7832L1.15 17.7835ZM1.15 19.6833V17.7833H0.85V19.6833H1.15ZM1.31667 19.85C1.22462 19.85 1.15 19.7754 1.15 19.6833H0.85C0.85 19.9411 1.05893 20.15 1.31667 20.15V19.85ZM19.6833 19.85H1.31667V20.15H19.6833V19.85ZM19.85 19.6833C19.85 19.7754 19.7754 19.85 19.6833 19.85V20.15C19.9411 20.15 20.15 19.9411 20.15 19.6833H19.85ZM19.85 17.7833V19.6833H20.15V17.7833H19.85ZM15.8832 13.8167C18.0732 13.8187 19.848 15.5935 19.85 17.7835L20.15 17.7832C20.1478 15.4278 18.2389 13.5188 15.8835 13.5167L15.8832 13.8167ZM15.1 7.01662V8.28329H15.4V7.01662H15.1ZM15.5667 6.86662H15.25V7.16662H15.5667V6.86662ZM16.0333 7.33329C16.0333 7.07556 15.8244 6.86662 15.5667 6.86662V7.16662C15.6587 7.16662 15.7333 7.24124 15.7333 7.33329H16.0333ZM16.0333 8.28329V7.33329H15.7333V8.28329H16.0333ZM15.5667 8.74996C15.8244 8.74996 16.0333 8.54102 16.0333 8.28329H15.7333C15.7333 8.37534 15.6587 8.44996 15.5667 8.44996V8.74996ZM15.2373 8.74996H15.5667V8.44996H15.2373V8.74996ZM15.1 8.28329C15.1 8.38811 15.0969 8.4878 15.0879 8.58638L15.3867 8.61354C15.3967 8.50311 15.4 8.39381 15.4 8.28329H15.1ZM5.4333 8.44996C5.34125 8.44996 5.26663 8.37534 5.26663 8.28329H4.96663C4.96663 8.54102 5.17557 8.74996 5.4333 8.74996V8.44996ZM5.76263 8.44996H5.4333V8.74996H5.76263V8.44996ZM5.59997 8.28329C5.59997 8.39381 5.60321 8.50311 5.61325 8.61354L5.91202 8.58638C5.90306 8.4878 5.89997 8.38811 5.89997 8.28329H5.59997ZM5.59997 7.01662V8.28329H5.89997V7.01662H5.59997ZM5.4333 7.16662H5.74997V6.86662H5.4333V7.16662ZM5.26663 7.33329C5.26663 7.24124 5.34125 7.16662 5.4333 7.16662V6.86662C5.17557 6.86662 4.96663 7.07556 4.96663 7.33329H5.26663ZM5.26663 8.28329V7.33329H4.96663V8.28329H5.26663ZM13.7821 11.0011C14.4165 10.2374 14.7647 9.2764 14.7667 8.28358L14.4667 8.28297C14.4648 9.20597 14.1411 10.0994 13.5513 10.8094L13.7821 11.0011ZM13.5167 8.71394V10.9053H13.8167V8.71394H13.5167ZM14.5015 7.47792L13.5515 8.61792L13.7819 8.80997L14.7319 7.66997L14.5015 7.47792ZM14.7667 8.28328V7.57394H14.4667V8.28328H14.7667ZM6.21667 3.85014C6.21797 2.7092 7.14256 1.78461 8.2835 1.7833L8.28316 1.48331C6.9768 1.4848 5.91816 2.54344 5.91667 3.8498L6.21667 3.85014ZM6.21667 5.43331V3.84997H5.91667V5.43331H6.21667ZM14.9333 5.28331H6.06667V5.58331H14.9333V5.28331ZM14.7833 3.84997V5.43331H15.0833V3.84997H14.7833ZM12.7165 1.7833C13.8574 1.78461 14.782 2.7092 14.7833 3.85014L15.0833 3.8498C15.0818 2.54344 14.0232 1.4848 12.7168 1.48331L12.7165 1.7833ZM8.28333 1.78331H12.7167V1.48331H8.28333V1.78331ZM6.23332 8.28351C6.23489 9.27645 6.58316 10.2377 7.21798 11.0012L7.44866 10.8094C6.85853 10.0996 6.53478 9.20608 6.53332 8.28304L6.23332 8.28351ZM6.23332 7.57394V8.28328H6.53332V7.57394H6.23332ZM7.44855 8.61792L6.49855 7.47792L6.26809 7.66997L7.21808 8.80997L7.44855 8.61792ZM7.48332 10.9053V8.71394H7.18332V10.9053H7.48332ZM6.53332 6.58607V6.06674H6.23332V6.58607H6.53332ZM7.8855 8.15248L6.4985 6.48998L6.26814 6.68217L7.65514 8.34467L7.8855 8.15248ZM10.3977 7.50999L7.73772 8.10216L7.80291 8.39499L10.4629 7.80282L10.3977 7.50999ZM10.6 7.50951C10.534 7.49587 10.4659 7.49587 10.4 7.50951L10.4607 7.8033C10.4866 7.79794 10.5134 7.79794 10.5393 7.8033L10.6 7.50951ZM13.2622 8.10216L10.6022 7.50999L10.5371 7.80282L13.1971 8.39499L13.2622 8.10216ZM14.5015 6.48998L13.1145 8.15248L13.3448 8.34467L14.7318 6.68217L14.5015 6.48998ZM14.4667 6.06674V6.58607H14.7667V6.06674H14.4667ZM6.38332 6.21674H14.6167V5.91674H6.38332V6.21674ZM7.81666 8.85337V11.526H8.11666V8.85337H7.81666ZM10.4674 8.14328L7.93408 8.70695L7.99923 8.99979L10.5326 8.43612L10.4674 8.14328ZM13.0659 8.70695L10.5326 8.14328L10.4674 8.43612L13.0007 8.99979L13.0659 8.70695ZM13.1833 11.526V8.85337H12.8833V11.526H13.1833ZM12.3289 12.1393C12.6114 12.0033 12.8785 11.8373 13.1257 11.6442L12.941 11.4078C12.7108 11.5877 12.4619 11.7423 12.1987 11.8691L12.3289 12.1393ZM8.67229 12.1399C9.82988 12.6846 11.1701 12.6846 12.3277 12.1399L12.2 11.8685C11.1233 12.3751 9.87671 12.3751 8.80002 11.8685L8.67229 12.1399ZM7.87432 11.6442C8.12144 11.8373 8.38855 12.0033 8.67106 12.1393L8.80125 11.8691C8.53805 11.7423 8.28921 11.5877 8.05899 11.4078L7.87432 11.6442ZM11.9334 12.7611V13.9834H12.2334V12.7611H11.9334ZM8.86657 12.9024C9.92332 13.277 11.0767 13.277 12.1335 12.9024L12.0332 12.6197C11.0413 12.9713 9.95871 12.9713 8.96681 12.6197L8.86657 12.9024ZM9.06669 13.9834V12.7611H8.76669V13.9834H9.06669ZM10.5 15.4167C9.70841 15.4167 9.06669 14.775 9.06669 13.9834H8.76669C8.76669 14.9407 9.54273 15.7167 10.5 15.7167V15.4167ZM11.9334 13.9834C11.9334 14.775 11.2916 15.4167 10.5 15.4167V15.7167C11.4573 15.7167 12.2334 14.9407 12.2334 13.9834H11.9334ZM6.85 17.4666C6.85 17.2089 6.64107 17 6.38333 17V17.3C6.47538 17.3 6.55 17.3746 6.55 17.4666H6.85ZM6.38333 17.9333C6.64107 17.9333 6.85 17.7244 6.85 17.4666H6.55C6.55 17.5587 6.47538 17.6333 6.38333 17.6333V17.9333ZM5.91667 17.4666C5.91667 17.7244 6.1256 17.9333 6.38333 17.9333V17.6333C6.29128 17.6333 6.21667 17.5587 6.21667 17.4666H5.91667ZM6.38333 17C6.1256 17 5.91667 17.2089 5.91667 17.4666H6.21667C6.21667 17.3746 6.29129 17.3 6.38333 17.3V17ZM19.3666 19.2167H1.63331V19.5167H19.3666V19.2167ZM19.2166 17.7833V19.3667H19.5166V17.7833H19.2166ZM15.8832 14.45C17.7237 14.4512 19.2155 15.9429 19.2166 17.7834L19.5166 17.7832C19.5154 15.7772 17.8895 14.1513 15.8834 14.15L15.8832 14.45ZM14.9333 14.45H15.8833V14.15H14.9333V14.45ZM15.0833 15.9087V14.3H14.7833V15.9087H15.0833ZM16.9833 18.0998C16.9819 16.9244 16.1181 15.9281 14.9547 15.7602L14.9119 16.0571C15.9278 16.2038 16.6821 17.0738 16.6833 18.1002L16.9833 18.0998ZM16.5166 18.5667C16.7744 18.5667 16.9833 18.3577 16.9833 18.1H16.6833C16.6833 18.1921 16.6087 18.2667 16.5166 18.2667V18.5667ZM15.8833 18.5667H16.5166V18.2667H15.8833V18.5667ZM15.7333 17.7833V18.4167H16.0333V17.7833H15.7333ZM16.1683 17.6333H15.8833V17.9333H16.1683V17.6333ZM14.6166 16.6651C15.2983 16.6651 15.8857 17.1452 16.0213 17.8132L16.3153 17.7535C16.1513 16.9456 15.441 16.3651 14.6166 16.3651V16.6651ZM13.212 17.8132C13.3476 17.1452 13.935 16.6651 14.6166 16.6651V16.3651C13.7923 16.3651 13.082 16.9456 12.918 17.7535L13.212 17.8132ZM13.35 17.6333H13.065V17.9333H13.35V17.6333ZM13.5 18.4167V17.7833H13.2V18.4167H13.5ZM12.7166 18.5667H13.35V18.2667H12.7166V18.5667ZM12.25 18.1C12.25 18.3577 12.4589 18.5667 12.7166 18.5667V18.2667C12.6246 18.2667 12.55 18.1921 12.55 18.1H12.25ZM14.2785 15.7602C13.1152 15.9281 12.2513 16.9244 12.25 18.0998L12.55 18.1002C12.5512 17.0738 13.3055 16.2038 14.3214 16.0571L14.2785 15.7602ZM14.15 14.3V15.9087H14.45V14.3H14.15ZM12.6945 14.45H14.3V14.15H12.6945V14.45ZM10.5 16.354C11.6781 16.354 12.6768 15.4875 12.843 14.3212L12.546 14.2788C12.4008 15.2973 11.5287 16.054 10.5 16.054V16.354ZM8.15697 14.3212C8.32316 15.4875 9.32188 16.354 10.5 16.354V16.054C9.47121 16.054 8.5991 15.2973 8.45397 14.2788L8.15697 14.3212ZM6.69997 14.45H8.30547V14.15H6.69997V14.45ZM6.84997 16.5737V14.3H6.54997V16.5737H6.84997ZM7.46746 17.6554C7.55806 17.1273 7.25507 16.6108 6.74997 16.4323L6.64997 16.7151C7.01732 16.845 7.23767 17.2206 7.17178 17.6046L7.46746 17.6554ZM6.38331 18.5693C6.91904 18.5693 7.37687 18.1834 7.46746 17.6554L7.17178 17.6046C7.1059 17.9886 6.77293 18.2693 6.38331 18.2693V18.5693ZM5.29915 17.6554C5.38974 18.1834 5.84756 18.5693 6.38331 18.5693V18.2693C5.99368 18.2693 5.66071 17.9886 5.59483 17.6046L5.29915 17.6554ZM6.01664 16.4323C5.51154 16.6108 5.20855 17.1273 5.29915 17.6554L5.59483 17.6046C5.52894 17.2206 5.74929 16.845 6.11664 16.7151L6.01664 16.4323ZM5.91664 14.3V16.5737H6.21664V14.3H5.91664ZM5.11664 14.45H6.06664V14.15H5.11664V14.45ZM1.7833 17.7834C1.78448 15.9429 3.27622 14.4512 5.11673 14.45L5.11654 14.15C3.11049 14.1513 1.48458 15.7772 1.48331 17.7832L1.7833 17.7834ZM1.78331 19.3667V17.7833H1.48331V19.3667H1.78331Z" fill="#292D32"/>
<path d="M8.59987 7.33328H8.91654C9.09143 7.33328 9.2332 7.19151 9.2332 7.01662C9.2332 6.84173 9.09143 6.69995 8.91654 6.69995H8.59987C8.42498 6.69995 8.2832 6.84173 8.2832 7.01662C8.2832 7.19151 8.42498 7.33328 8.59987 7.33328Z" fill="#292D32" stroke="#292D32" stroke-width="0.3"/>
<path d="M12.0833 7.33328H12.3999C12.5748 7.33328 12.7166 7.19151 12.7166 7.01662C12.7166 6.84173 12.5748 6.69995 12.3999 6.69995H12.0833C11.9084 6.69995 11.7666 6.84173 11.7666 7.01662C11.7666 7.19151 11.9084 7.33328 12.0833 7.33328Z" fill="#292D32" stroke="#292D32" stroke-width="0.3"/>
</svg>
