<svg width="180" height="232" viewBox="0 0 180 232" fill="none" xmlns="http://www.w3.org/2000/svg">
<path fill-rule="evenodd" clip-rule="evenodd" d="M90 128.833C68.737 128.833 51.5 111.596 51.5 90.3333C51.5 69.0704 68.737 51.8333 90 51.8333C111.263 51.8333 128.5 69.0704 128.5 90.3333C128.5 111.596 111.263 128.833 90 128.833ZM94.3633 229.793C91.9022 232.076 88.0978 232.076 85.6366 229.793C28.862 177.369 0.166626 131.041 0.166626 90.3333C0.166625 58.239 17.2888 28.5826 45.0833 12.5354C72.8778 -3.51179 107.122 -3.51179 134.917 12.5354C162.711 28.5826 179.833 58.239 179.833 90.3333C179.833 131.041 151.151 177.369 94.3633 229.793V229.793Z" fill="#801002"/>
</svg>
