<svg width="23" height="23" viewBox="0 0 23 23" fill="none" xmlns="http://www.w3.org/2000/svg">
<path d="M12.3434 19.9909H6.52633C3.12425 19.9909 1.91675 17.6047 1.91675 15.3814V7.61886C1.91675 4.30303 3.2105 3.00928 6.52633 3.00928H12.3434C15.6592 3.00928 16.953 4.30303 16.953 7.61886V15.3814C16.953 18.6972 15.6592 19.9909 12.3434 19.9909ZM6.52633 4.46594C4.02508 4.46594 3.37341 5.11761 3.37341 7.61886V15.3814C3.37341 16.5601 3.7855 18.5343 6.52633 18.5343H12.3434C14.8447 18.5343 15.4963 17.8826 15.4963 15.3814V7.61886C15.4963 5.11761 14.8447 4.46594 12.3434 4.46594H6.52633V4.46594Z" fill="#070C18"/>
<path d="M19.9142 17.3554C19.5021 17.3554 18.975 17.2212 18.3713 16.7996L15.8125 15.0075C15.6209 14.8733 15.5059 14.6529 15.5059 14.4133V8.58664C15.5059 8.34706 15.6209 8.12664 15.8125 7.99247L18.3713 6.20039C19.5117 5.40497 20.3454 5.63497 20.7384 5.83622C21.1313 6.04706 21.8021 6.59331 21.8021 7.98289V15.0075C21.8021 16.3971 21.1313 16.9529 20.7384 17.1541C20.5563 17.2596 20.2688 17.3554 19.9142 17.3554ZM16.9529 14.03L19.205 15.6016C19.6363 15.8987 19.9429 15.9275 20.0675 15.8604C20.2017 15.7933 20.3454 15.525 20.3454 15.0075V7.99247C20.3454 7.46539 20.1921 7.20664 20.0675 7.13956C19.9429 7.07247 19.6363 7.10122 19.205 7.39831L16.9529 8.96997V14.03Z" fill="#070C18"/>
<path d="M11.0208 11.2605C9.83242 11.2605 8.8645 10.2926 8.8645 9.10425C8.8645 7.91591 9.83242 6.948 11.0208 6.948C12.2091 6.948 13.177 7.91591 13.177 9.10425C13.177 10.2926 12.2091 11.2605 11.0208 11.2605ZM11.0208 8.3855C10.6278 8.3855 10.302 8.71133 10.302 9.10425C10.302 9.49716 10.6278 9.823 11.0208 9.823C11.4137 9.823 11.7395 9.49716 11.7395 9.10425C11.7395 8.71133 11.4137 8.3855 11.0208 8.3855Z" fill="#070C18"/>
</svg>
